<svg xmlns="http://www.w3.org/2000/svg" class="pagina-categoria__ilustracao" xmlns:xlink="http://www.w3.org/1999/xlink" width="300"  height="304" ><defs><symbol id="icon-ilustracoes-categorias-front-end" viewBox="0 0 200 269"><g fill="#167BF7" fill-rule="nonzero"><path d="M33 268H0V31h4.091c.277 0 .502.224.502.5 0 .275-.225.499-.502.499H1.004V267h30.992V54.644c0-.276.225-.5.502-.5s.502.224.502.5V268zm-.5-220c-.276 0-.5-.217-.5-.484V31.484c0-.267.224-.484.5-.484s.5.217.5.484v16.032c0 .267-.224.484-.5.484zm30.994-16h-4.988c-.28 0-.506-.224-.506-.5s.227-.5.506-.5h4.988c.28 0 .506.224.506.5s-.227.5-.506.5zM55.5 32h-5c-.276 0-.5-.224-.5-.5s.224-.5.5-.5h5c.276 0 .5.224.5.5s-.224.5-.5.5z"></path><path d="M41.457 32h-30.95c-.28 0-.507-.224-.507-.5s.227-.5.508-.5h30.984c.28 0 .508.224.508.5s-.227.5-.508.5h-.035z"></path><path d="M200 32h-36.837c-.276 0-.5-.227-.5-.508 0-.28.224-.508.5-.508h35.839V1.016H1.998v30.476c0 .28-.223.508-.499.508S1 31.773 1 31.492V0h199v32z"></path><path d="M156.5 32h-20.01c-.27 0-.49-.224-.49-.5s.22-.5.49-.5h20.02c.27 0 .49.224.49.5s-.22.5-.49.5h-.01zM32.498 241H.502c-.277 0-.502-.224-.502-.5s.225-.5.502-.5h31.996c.277 0 .502.224.502.5s-.225.5-.502.5zm0 10H.502c-.277 0-.502-.224-.502-.5s.225-.5.502-.5h31.996c.277 0 .502.224.502.5s-.225.5-.502.5zm0 9H.502c-.277 0-.502-.224-.502-.5s.225-.5.502-.5h31.996c.277 0 .502.224.502.5s-.225.5-.502.5zm-24.98 9a.473.473 0 01-.335-.139l-6.042-6.04c-.188-.187-.188-.492 0-.68a.4804.4804 0 01.68 0l6.037 6.04c.091.09.142.212.142.34 0 .127-.051.25-.142.34-.09.09-.213.14-.34.139z"></path><path d="M13.48 268a.5095.5095 0 01-.359-.147l-8.971-8.986a.507.507 0 11.714-.72l8.986 8.987c.096.095.15.224.15.36 0 .134-.054.264-.15.359a.5092.5092 0 01-.37.147zm6.016 0c-.133 0-.26-.053-.355-.147l-8.992-8.985a.5072.5072 0 01-.132-.491.5078.5078 0 01.36-.36c.175-.047.362.003.49.132l8.983 8.985a.5065.5065 0 01-.359.866h.005zm4.994 0a.5095.5095 0 01-.359-.147l-8.981-8.986a.507.507 0 01.714-.72l8.986 8.987c.096.095.15.224.15.36 0 .134-.054.264-.15.36a.5074.5074 0 01-.36.146zm7.006 0a.51.51 0 01-.36-.147l-8.986-8.986c-.199-.198-.2-.519-.003-.717a.507.507 0 01.717-.003l8.986 8.987c.146.144.19.362.112.551a.5058.5058 0 01-.466.315zm1.034-4a.47.47 0 01-.331-.135l-4.062-4.064a.4702.4702 0 010-.664.469.469 0 01.663 0l4.062 4.064c.088.088.138.207.138.332 0 .124-.05.244-.138.332a.4664.4664 0 01-.332.135zM7.52 252c-.133-.001-.26-.061-.35-.167l-6.063-6.988c-.159-.212-.139-.52.046-.706.185-.186.472-.185.657 0l6.062 7.015c.18.21.169.536-.024.731-.093.08-.21.121-.328.114zm5.95-1c-.14 0-.275-.055-.37-.152l-8.965-9.05c-.19-.192-.178-.493.028-.671.205-.179.526-.167.716.026l8.986 9.049c.137.138.173.34.093.512-.08.173-.262.285-.463.286h-.025zm6.007 0c-.14-.001-.275-.056-.37-.153l-8.994-9.07c-.168-.195-.147-.479.049-.65.195-.17.497-.17.692.001l8.998 9.071c.197.186.197.486 0 .672-.1.089-.236.135-.375.128zm5.034 0c-.14 0-.273-.055-.369-.152l-8.982-9.028c-.138-.121-.192-.304-.141-.474.051-.17.2-.3.384-.336.185-.036.376.028.495.165l8.967 9.029c.137.138.173.338.093.51-.08.174-.261.285-.462.286h.015zm6.971 0c-.142 0-.278-.055-.375-.153l-8.994-9.07c-.168-.195-.147-.479.048-.65.195-.17.498-.17.692.001l9 9.072c.196.185.196.485 0 .67-.1.089-.234.135-.37.13zm1.05-6c-.13 0-.254-.052-.343-.142l-4.084-4.136c-.156-.181-.136-.445.044-.603.181-.159.461-.159.641 0l4.085 4.137c.175.179.165.458-.024.624-.086.077-.2.12-.319.12z"></path><path d="M1.475 258c-.126 0-.247-.056-.336-.155-.185-.208-.185-.544 0-.752l6.035-6.93c.12-.138.296-.194.463-.147.167.047.298.19.345.374.047.184.002.381-.118.519l-6.035 6.93c-.093.107-.221.165-.354.16zm3.029 2c-.203 0-.386-.12-.465-.303a.4833.4833 0 01.106-.535l8.982-9.012c.196-.196.518-.2.719-.01.201.19.206.504.01.7l-8.987 9.007a.5162.5162 0 01-.365.153zm5.998 0c-.133 0-.26-.052-.355-.143a.4842.4842 0 010-.695l8.985-9.014c.195-.194.516-.198.716-.007.2.19.203.503.007.697l-8.99 9.01a.5148.5148 0 01-.363.152zm5 0c-.133 0-.26-.052-.355-.143a.4842.4842 0 010-.695l8.98-9.012c.196-.196.518-.2.719-.01.201.19.206.504.01.7l-8.995 9.007a.513.513 0 01-.36.153zm6.994 0a.5146.5146 0 01-.349-.143.4842.4842 0 010-.695l8.985-9.014c.195-.194.516-.198.716-.007.2.19.203.503.007.697l-8.994 9.01a.5195.5195 0 01-.365.152zm5.966 0c-.122 0-.24-.048-.326-.132a.445.445 0 010-.64l4.06-4.09c.18-.18.476-.185.661-.01a.445.445 0 01.012.642l-4.061 4.09c-.09.09-.215.142-.346.14zM.502 231c-.196 0-.374-.122-.456-.312-.082-.19-.053-.414.074-.574 4.083-5.14 10.067-8.107 16.372-8.114 6.304-.007 12.295 2.945 16.388 8.077.18.225.155.564-.056.757-.21.192-.527.166-.707-.06-3.902-4.893-9.614-7.708-15.625-7.7-6.011.007-11.717 2.836-15.61 7.738-.095.12-.234.188-.38.188zm0-12.02c-.178 0-.343-.09-.432-.233-.141-.223-.062-.51.176-.642 10.025-5.473 22.434-5.473 32.459 0 .174.074.289.233.295.412.006.179-.098.345-.267.429-.17.083-.375.07-.53-.036-9.71-5.301-21.73-5.301-31.44 0-.08.045-.17.069-.261.07z"></path><path d="M30.376 240.998c-.18.015-.356-.063-.46-.203-.103-.14-.12-.321-.042-.476.077-.154.235-.259.416-.273l.728-.119-9.459-2.985-4.613-8.795-4.608 8.79-9.15 3.076.369.028c.18.014.34.117.418.271.078.154.062.336-.04.476-.104.14-.278.22-.459.206l-1.841-.134c-.325-.028-.587-.264-.629-.569-.042-.305.145-.596.452-.702l10.152-3.414L16.946 226l5.332 10.17 10.248 3.233c.301.095.496.37.472.668-.024.298-.26.543-.573.594l-1.958.324-.09.01z"></path><path d="M25.892 237.995a.456.456 0 01-.138 0 .4912.4912 0 01-.295-.23.4699.4699 0 01-.04-.365l2.106-6.986-7.893 2.254c-.262.074-.536-.072-.612-.326-.076-.254.074-.52.335-.595L29 229l-2.61 8.669c-.07.205-.275.34-.498.326zM7.132 238c-.227.008-.43-.133-.494-.342L4 229l9.647 2.717c.261.075.41.339.332.59-.077.252-.352.395-.614.32l-7.89-2.228 2.13 6.994c.037.12.022.25-.04.36-.064.11-.17.192-.295.228a.4645.4645 0 01-.138.019zm9.359-84c-6.299.007-12.283-2.945-16.37-8.074-.18-.225-.156-.564.054-.757.21-.192.527-.166.707.06 3.9 4.896 9.613 7.714 15.625 7.707 6.012-.007 11.718-2.839 15.608-7.745.179-.227.495-.256.707-.065.212.192.238.53.06.757-4.083 5.153-10.078 8.121-16.39 8.117z"></path><path d="M17.045 151l-5.33-10.175-10.24-3.229c-.302-.094-.497-.37-.473-.668.024-.298.26-.543.573-.593l1.957-.324c.274-.043.533.129.582.385a.4535.4535 0 01-.083.357c-.077.103-.195.174-.327.196l-.723.119 9.452 2.98 4.612 8.8 4.608-8.795 9.148-3.07-.369-.03c-.278-.022-.483-.252-.46-.514.021-.261.263-.457.541-.438l1.84.138c.33.021.597.257.64.564.045.307-.146.6-.457.703L22.38 140.82 17.045 151z"></path><path d="M4 147l2.615-8.654a.4839.4839 0 01.239-.288.509.509 0 01.379-.038c.126.037.232.12.294.233.062.112.075.244.037.365l-2.106 6.97 7.91-2.248a.5066.5066 0 01.48.114.47.47 0 01.138.46c-.042.165-.172.297-.342.345L4 147zm25 0l-9.645-2.716c-.261-.073-.411-.336-.335-.587.076-.252.35-.396.612-.323l7.893 2.228-2.112-6.99a.455.455 0 01.04-.364c.062-.111.17-.194.296-.229.261-.073.535.071.612.322L29 147zm-7.484 69c-.285 0-.516-.227-.516-.508V197.9c0-3.259 2.686-5.9 6-5.9s6 2.641 6 5.9v16.353c0 .28-.231.508-.516.508-.286 0-.517-.227-.517-.508V197.9c0-2.698-2.224-4.885-4.967-4.885-2.743 0-4.967 2.187-4.967 4.885v17.592c0 .135-.055.264-.152.36a.5193.5193 0 01-.365.148z"></path><path d="M30.5 217c-.276 0-.5-.227-.5-.507v-13.947c0-1.399-1.12-2.533-2.5-2.533s-2.5 1.134-2.5 2.533v11.982c0 .28-.224.506-.5.506s-.5-.226-.5-.506v-11.982c0-1.958 1.567-3.546 3.5-3.546s3.5 1.588 3.5 3.546v13.947c0 .28-.224.507-.5.507zm-16-2c-.276 0-.5-.226-.5-.506v-10.953c0-1.955 1.567-3.541 3.5-3.541s3.5 1.586 3.5 3.541v10.903c0 .279-.224.505-.5.505s-.5-.226-.5-.505V203.54c0-1.397-1.12-2.53-2.5-2.53s-2.5 1.133-2.5 2.53v10.953c0 .28-.224.506-.5.506zm-11 2c-.276 0-.5-.225-.5-.502v-13.869c-.027-1.97 1.537-3.593 3.5-3.629 1.964.033 3.53 1.657 3.5 3.63v11.815c0 .277-.224.502-.5.502s-.5-.225-.5-.502V202.63c.03-1.417-1.088-2.592-2.5-2.625-1.412.033-2.53 1.208-2.5 2.625v13.869c0 .133-.052.26-.146.355a.5003.5003 0 01-.354.147z"></path><path d="M11.516 216c-.285 0-.516-.227-.516-.508V197.9c0-3.259 2.686-5.9 6-5.9s6 2.641 6 5.9v16.353c0 .28-.231.508-.516.508-.286 0-.517-.227-.517-.508V197.9c0-2.698-2.224-4.885-4.967-4.885-2.743 0-4.967 2.187-4.967 4.885v17.592c0 .28-.231.508-.517.508z"></path><path d="M.516 216c-.285 0-.516-.227-.516-.508V197.9c0-3.259 2.686-5.9 6-5.9s6 2.641 6 5.9v16.353c0 .28-.231.508-.516.508-.286 0-.517-.227-.517-.508V197.9c0-2.698-2.224-4.885-4.967-4.885-2.743 0-4.967 2.187-4.967 4.885v17.592c0 .28-.231.508-.517.508z"></path><path d="M32.497 193H.503c-.278 0-.503-.224-.503-.5s.225-.5.503-.5h31.994c.278 0 .503.224.503.5s-.225.5-.503.5zm0-31H.503c-.278 0-.503-.224-.503-.5s.225-.5.503-.5h31.994c.278 0 .503.224.503.5s-.225.5-.503.5z"></path><path d="M17.001 193c-.24.002-.45-.159-.515-.392l-3.284-11.484c-.517-1.801-.024-3.744 1.286-5.07.666-.675 1.569-1.054 2.511-1.054.942 0 1.845.379 2.511 1.053 1.31 1.328 1.803 3.27 1.291 5.071l-3.284 11.474c-.063.224-.26.382-.491.392l-.025.01zm0-17.007c-.681-.002-1.335.272-1.816.76-1.06 1.07-1.458 2.639-1.04 4.093L17 190.834l2.853-9.988c.417-1.454.018-3.023-1.041-4.093a2.5351 2.5351 0 00-1.812-.76z"></path><path d="M16.42 192c-.14.004-.276-.043-.377-.132l-9.262-7.531c-1.453-1.182-2.082-2.986-1.644-4.71.467-1.822 2.471-2.958 4.481-2.54 1.908.396 3.427 1.7 3.965 3.407l3.396 10.854c.069.22-.033.454-.248.572-.092.056-.2.084-.31.08zm-7.644-14.06c-1.258-.001-2.349.786-2.63 1.898-.358 1.39.15 2.847 1.322 3.8l8.058 6.562-2.977-9.448c-.43-1.375-1.65-2.429-3.184-2.752-.193-.04-.39-.06-.589-.06z"></path><path d="M16.498 191.99h-.086l-11.34-1.882c-1.781-.293-3.265-1.556-3.872-3.296-.637-1.839.298-3.86 2.091-4.518 1.698-.62 3.59-.245 4.94.978l8.591 7.794c.164.146.221.381.145.589-.077.208-.271.345-.488.345l.019-.01zm-11.546-9.02c-.457 0-.91.081-1.341.24-.624.228-1.133.701-1.416 1.315a2.6129 2.6129 0 00-.092 1.956c.489 1.403 1.685 2.422 3.121 2.66l9.861 1.633-7.489-6.777c-.73-.661-1.67-1.026-2.644-1.027z"></path><path d="M17.526 192c-.218.002-.414-.134-.492-.343-.077-.208-.02-.444.144-.59l8.59-7.794c1.352-1.224 3.246-1.599 4.945-.978 1.792.66 2.724 2.68 2.086 4.517-.605 1.739-2.087 3.002-3.866 3.296L17.607 192h-.081zm11.531-9.02c-.974 0-1.914.365-2.644 1.026l-7.479 6.777 9.865-1.633c1.435-.241 2.63-1.259 3.122-2.66.228-.642.196-1.35-.088-1.968-.284-.618-.797-1.094-1.425-1.323a3.8781 3.8781 0 00-1.341-.22h-.01z"></path><path d="M16.57 192a.5556.5556 0 01-.3-.08c-.216-.118-.318-.352-.249-.572l3.4-10.854c.535-1.703 2.05-3.009 3.955-3.407 2.013-.418 4.02.718 4.487 2.54.439 1.724-.192 3.528-1.646 4.71l-9.274 7.532c-.1.087-.234.134-.373.13zm7.65-14.06c-.206 0-.411.02-.612.06-1.536.323-2.757 1.377-3.188 2.752l-2.96 9.439 8.068-6.562c1.175-.953 1.683-2.41 1.325-3.8-.286-1.108-1.378-1.891-2.634-1.89zM.714 178c-.248-.014-.46-.173-.528-.397-.047-.183.02-.375.174-.496l3.43-11.268c.449-1.452.02-3.02-1.12-4.088-.559-.522-1.328-.797-2.114-.754-.292.014-.54-.197-.555-.471-.015-.274.21-.508.502-.521 1.08-.052 2.131.329 2.895 1.046 1.41 1.326 1.941 3.267 1.385 5.066l-3.535 11.471c-.061.234-.278.401-.534.412zm.805 1c-.217-.003-.41-.141-.486-.349-.076-.208-.02-.442.142-.59l8.592-7.788c1.351-1.224 3.245-1.599 4.944-.978.863.315 1.567.968 1.958 1.815.391.848.438 1.82.128 2.702-.608 1.74-2.09 3.002-3.87 3.296L1.585 178.99l-.067.01zm11.541-9.026c-.974 0-1.915.366-2.644 1.027l-7.49 6.782 9.862-1.633c1.437-.241 2.634-1.261 3.126-2.665.462-1.33-.215-2.792-1.513-3.266-.43-.159-.884-.24-1.341-.24v-.005z"></path><path d="M1.565 179a.6228.6228 0 01-.295-.08c-.216-.118-.318-.352-.249-.571l3.4-10.854c.535-1.703 2.05-3.009 3.955-3.407.967-.204 1.983-.05 2.825.427.842.476 1.44 1.236 1.662 2.113.439 1.724-.192 3.528-1.646 4.71l-9.28 7.521c-.1.087-.233.136-.372.141zm7.66-14.06a3.035 3.035 0 00-.617.066c-1.536.32-2.758 1.373-3.188 2.746l-2.965 9.425 8.068-6.561c1.177-.952 1.686-2.41 1.33-3.8-.293-1.1-1.38-1.875-2.629-1.875zM32.407 179c-.254-.01-.473-.168-.543-.392l-3.64-11.484c-.574-1.802-.026-3.746 1.429-5.071.733-.677 1.734-1.057 2.776-1.053.3 0 .544.222.544.497 0 .274-.244.496-.544.496-.762-.008-1.495.266-2.032.76-1.165 1.066-1.606 2.625-1.152 4.073l3.56 11.24c.166.127.234.332.173.522-.065.24-.3.41-.57.412z"></path><path d="M33.425 179c-.14 0-.274-.047-.378-.131l-9.264-7.537c-1.454-1.18-2.085-2.984-1.646-4.707.467-1.82 2.474-2.956 4.487-2.539 1.905.399 3.42 1.703 3.954 3.406l3.4 10.843c.07.22-.03.454-.243.576-.092.056-.2.087-.31.089zm-7.655-14.052c-1.25-.001-2.34.773-2.634 1.874-.357 1.39.15 2.846 1.325 3.798l8.068 6.558-2.96-9.42c-.427-1.38-1.654-2.439-3.198-2.758a3.0218 3.0218 0 00-.6-.052z"></path><path d="M32.505 178.99h-.086l-11.346-1.882c-1.78-.295-3.264-1.557-3.872-3.296-.639-1.839.297-3.86 2.091-4.518 1.699-.62 3.592-.245 4.942.978l8.596 7.794c.158.149.212.38.136.586-.075.205-.265.343-.48.348l.02-.01zm-11.545-9.02c-.46 0-.915.08-1.347.24-.624.227-1.133.7-1.416 1.312a2.608 2.608 0 00-.093 1.954c.49 1.404 1.686 2.425 3.123 2.665l9.866 1.633-7.488-6.777c-.73-.66-1.671-1.025-2.645-1.027zM16.52 165c-.247.002-.465-.185-.532-.456l-.968-3.805c-.05-.198-.005-.412.12-.56.126-.15.311-.211.487-.162.176.049.316.2.366.399l.507 2.067.507-2.067c.05-.198.19-.35.366-.4.176-.048.361.013.486.162.126.15.171.363.12.561l-.962 3.805c-.065.26-.27.444-.507.456h.01z"></path><path d="M16.472 165h-.086l-11.348-2.17c-1.12-.214-2.143-.874-2.9-1.87-.124-.148-.169-.365-.117-.564.053-.199.194-.347.368-.386.173-.039.35.038.461.2.612.804 1.438 1.336 2.34 1.51l9.869 1.883-2.494-2.615c-.198-.207-.216-.564-.04-.797.175-.233.478-.255.676-.048l3.625 3.78c.172.182.223.476.124.722-.084.22-.273.36-.478.355z"></path><path d="M17.52 165c-.216-.003-.408-.161-.485-.399-.077-.237-.024-.506.135-.677l3.636-3.77c.199-.143.455-.097.609.109.153.205.159.51.013.724l-2.497 2.598 9.889-1.882c.905-.177 1.732-.712 2.344-1.516.177-.232.48-.25.677-.042.197.208.213.565.036.797-.76.994-1.784 1.654-2.904 1.871l-11.367 2.17-.086.017zm-1.023-64L.263 84.63C.095 84.464 0 84.235 0 83.996s.095-.468.263-.636L16.497 67l16.24 16.36c.168.167.263.396.263.635s-.095.468-.263.636L16.497 101zM1.056 83.995L16.497 99.55 31.94 83.995l-15.442-15.54-15.441 15.54z"></path><path d="M16.993 93L9 84.998 16.993 77 25 84.998 16.993 93zm-6.649-8.002l6.649 6.652 6.649-6.652-6.65-6.653-6.648 6.653z"></path><path d="M16.993 107L9 99.005 16.993 91 25 99.005 16.993 107zm-6.649-8.01l6.649 6.66 6.649-6.66-6.65-6.658-6.648 6.658zM33.499 107c-.128 0-.25-.052-.341-.145l-8.012-7.972a.531.531 0 01-.146-.367c0-.137.053-.27.146-.366.193-.2.504-.2.696 0l8.012 7.973c.093.096.146.228.146.366 0 .138-.053.27-.146.366a.4838.4838 0 01-.355.145z"></path><path d="M16.5 135c-.276 0-.5-.22-.5-.493V89.493c0-.272.224-.493.5-.493s.5.22.5.493v45.014c0 .272-.224.493-.5.493zM1.499 107c-.135 0-.264-.06-.355-.165-.092-.097-.144-.23-.144-.367 0-.138.052-.27.144-.367l8.039-7.963c.197-.194.505-.182.688.028.182.21.17.537-.027.73l-8.015 7.965c-.09.089-.208.139-.33.139zm26.02 29c-.224.008-.423-.145-.48-.37l-8.022-30.999c-.07-.267.083-.542.34-.614.258-.071.522.087.59.355l8.037 30.999c.067.266-.085.538-.34.609-.04.014-.083.02-.125.02zm-21.05-.004a.531.531 0 01-.126 0c-.12-.035-.22-.119-.282-.234a.532.532 0 01-.044-.38l8.066-31.016c.07-.266.327-.422.576-.347.248.074.393.35.324.616l-8.067 30.992c-.054.217-.238.368-.447.37zM32.476 120a.524.524 0 01-.444-.252L21.1 101.816a.509.509 0 01-.04-.543c.094-.173.28-.279.479-.273.2.006.378.123.46.302l10.926 17.902c.149.243.07.557-.177.704a.5272.5272 0 01-.272.092zm-30.972-1a.5102.5102 0 01-.267-.078c-.235-.143-.307-.44-.162-.669l10.989-17.023c.148-.229.46-.299.697-.156.238.143.31.445.162.674L1.934 118.746c-.086.153-.25.25-.43.254zm15.498-43L9 68l8.002-8L25 68l-7.998 8zm-6.652-8l6.652 6.65L23.655 68l-6.653-6.65L10.35 68zm-1.827 1a.463.463 0 01-.327-.138l-8.049-8.01c-.19-.188-.197-.501-.016-.699a.461.461 0 01.67-.017l8.054 8c.139.14.183.353.11.54-.07.186-.244.308-.437.31L8.523 69zM16.5 47c-.276 0-.5-.22-.5-.49V31.49c0-.27.224-.49.5-.49s.5.22.5.49v15.02c0 .27-.224.49-.5.49z"></path><path d="M16.5 61c-.276 0-.5-.234-.5-.522v-6.956c0-.288.224-.522.5-.522s.5.234.5.522v6.956c0 .288-.224.522-.5.522zm9.001 8c-.14.001-.273-.06-.368-.17-.187-.213-.175-.547.025-.746l8.005-7.943c.202-.199.517-.186.704.03.187.214.175.55-.027.748l-8 7.943a.478.478 0 01-.339.138zm-11.022-5c-.251.008-.475-.151-.54-.384l-3.92-13.965c-.077-.274.092-.557.378-.632.138-.037.286-.02.41.049.125.068.217.18.255.314l3.92 13.964c.076.275-.093.557-.379.633-.04.013-.082.02-.124.02zm9.027-14.006a.394.394 0 01-.137 0c-.269-.076-.425-.357-.35-.628l4.976-17.956a.505.505 0 01.36-.39c.183-.053.38.003.51.143.129.14.17.342.104.522l-4.975 17.957c-.07.212-.266.354-.488.352zM19.49 63.996a.5827.5827 0 01-.132 0c-.26-.081-.412-.378-.34-.664l2.014-7.935c.047-.186.18-.33.35-.38.171-.048.352.006.476.144.124.137.171.336.124.523l-2.018 7.934c-.065.226-.257.38-.473.378zM12.488 66c-.178 0-.344-.09-.436-.24L1.045 47.704a.4935.4935 0 01.207-.636c.225-.129.512-.07.665.137L12.93 65.261c.143.237.063.543-.177.683a.5156.5156 0 01-.264.055zm9.99 0a.464.464 0 01-.253-.074.4973.4973 0 01-.213-.307.5111.5111 0 01.06-.373l6.03-9.985c.084-.162.249-.263.427-.261.179.002.34.108.42.273.08.165.064.362-.041.51l-6.024 9.985c-.088.145-.241.232-.406.232zm11.007 19H1.515C1.231 85 1 84.776 1 84.5s.23-.5.515-.5h31.97c.284 0 .515.224.515.5s-.23.5-.515.5z"></path><path d="M16.5 92c-.276 0-.5-.225-.5-.503V60.503c0-.278.224-.503.5-.503s.5.225.5.503v30.994c0 .278-.224.503-.5.503zm15.998 43H.502c-.277 0-.502-.224-.502-.5s.225-.5.502-.5h31.996c.277 0 .502.224.502.5s-.225.5-.502.5zM16.5 162c-.276 0-.5-.24-.5-.535v-7.93c0-.295.224-.535.5-.535s.5.24.5.535v7.93c0 .295-.224.535-.5.535zm-15.031 0a.421.421 0 01-.26-.088c-.215-.157-.274-.474-.132-.71l6.056-9.971c.07-.114.178-.194.3-.22.124-.028.251 0 .356.076.104.075.177.193.202.328.024.134 0 .273-.07.387l-6.061 9.966c-.087.144-.234.231-.391.232zm31.068 0c-.16 0-.309-.086-.397-.232l-6.06-9.966c-.145-.237-.086-.558.131-.716.218-.157.511-.093.656.144l6.061 9.972c.067.116.088.256.06.39-.029.133-.104.248-.21.32a.4165.4165 0 01-.241.088zm-8.014-.003c-.225.007-.424-.147-.48-.371l-2.019-7.976a.5078.5078 0 01.111-.5c.124-.131.31-.182.48-.13.172.052.302.197.337.378l2.032 7.99c.067.264-.085.534-.341.604-.04.009-.08.01-.12.005zM9.517 161a.491.491 0 01-.17-.03.5156.5156 0 01-.297-.256.4861.4861 0 01-.02-.383l2.976-8.03c.108-.241.392-.36.65-.272.257.088.399.354.324.607l-2.975 8.03c-.073.2-.268.333-.488.334zm23.04-10c-.092 0-.181-.037-.255-.104l-2.148-1.93c-.173-.184-.205-.505-.072-.736.133-.232.385-.298.581-.153L32.816 150c.095.085.16.214.178.358.02.145-.009.293-.077.411-.083.146-.218.232-.36.231zm-31.112 0c-.141-.001-.274-.085-.357-.225-.07-.117-.1-.263-.083-.407.018-.144.081-.274.176-.36l2.108-1.902c.096-.086.216-.122.333-.1.118.023.223.102.292.22.144.243.103.583-.093.762l-2.126 1.924c-.074.06-.161.09-.25.088zM200 268h-33V31h33v237zm-31.996-.999h30.992V32h-30.992v235z"></path><path d="M199.498 241h-31.996c-.277 0-.502-.224-.502-.5s.225-.5.502-.5h31.996c.277 0 .502.224.502.5s-.225.5-.502.5zm0 10h-31.996c-.277 0-.502-.224-.502-.5s.225-.5.502-.5h31.996c.277 0 .502.224.502.5s-.225.5-.502.5zm0 9h-31.996c-.277 0-.502-.224-.502-.5s.225-.5.502-.5h31.996c.277 0 .502.224.502.5s-.225.5-.502.5zm-25.98 9a.477.477 0 01-.336-.139l-6.04-6.04a.4797.4797 0 01-.142-.341c0-.128.051-.25.142-.34a.4792.4792 0 01.676 0l6.04 6.04c.138.137.18.345.105.524-.074.18-.25.297-.445.296z"></path><path d="M179.49 268a.5095.5095 0 01-.359-.147l-8.981-8.986a.507.507 0 01.714-.72l8.986 8.987c.096.095.15.224.15.36 0 .134-.054.264-.15.36a.5074.5074 0 01-.36.146zm6.006 0a.51.51 0 01-.36-.147l-8.986-8.986a.507.507 0 01.714-.72l8.986 8.987c.146.144.19.362.112.551a.5058.5058 0 01-.466.315zm5.994 0a.502.502 0 01-.354-.147l-8.987-8.985a.5076.5076 0 010-.719c.198-.199.52-.199.719 0l8.982 8.985c.096.095.15.224.15.36 0 .135-.054.264-.15.36a.5074.5074 0 01-.36.146zm6 0a.5095.5095 0 01-.359-.147l-8.981-8.986a.507.507 0 01.714-.72l8.986 8.987c.096.095.15.224.15.36 0 .134-.054.264-.15.36a.5074.5074 0 01-.36.146zm2.04-4c-.122 0-.24-.05-.326-.135l-4.067-4.064a.4702.4702 0 010-.664.469.469 0 01.663 0l4.062 4.064c.135.134.175.336.102.511a.465.465 0 01-.434.288zm-26.013-12.001c-.132 0-.26-.06-.35-.165l-6.04-6.965c-.18-.21-.168-.537.027-.731.195-.194.498-.182.678.028l6.04 6.99c.18.21.169.535-.024.73-.093.08-.211.121-.33.113zm5.965-.999a.522.522 0 01-.37-.153l-8.999-9.07c-.168-.195-.147-.479.049-.65.195-.17.497-.17.692.001l8.998 9.072c.197.185.197.485 0 .67-.1.089-.233.135-.37.13zm6.013 0a.521.521 0 01-.37-.152l-8.99-9.05c-.19-.192-.178-.493.028-.671.205-.179.526-.167.716.026l8.986 9.049c.137.138.173.34.093.512-.08.173-.262.285-.463.286zm5.999 0a.5217.5217 0 01-.37-.152l-9.01-9.072c-.169-.194-.148-.478.048-.648.195-.17.498-.17.693 0l9.01 9.072c.19.192.178.492-.026.671-.093.083-.217.129-.345.129zm5.977 0c-.14 0-.273-.055-.369-.152l-8.967-9.05c-.123-.124-.166-.3-.112-.463.053-.163.195-.286.371-.323.176-.038.36.016.483.14l8.988 9.05c.137.138.173.34.093.512-.08.173-.261.285-.462.286h-.025zm2.051-6c-.13 0-.254-.052-.342-.142l-4.075-4.136c-.155-.181-.136-.445.044-.603.18-.159.46-.159.64 0l4.075 4.137c.181.172.181.451 0 .624-.092.082-.216.125-.342.12z"></path><path d="M167.477 258c-.192 0-.366-.13-.44-.328-.074-.198-.035-.426.1-.579l6.04-6.933c.186-.21.49-.214.679-.008.19.206.192.544.007.755l-6.04 6.933c-.091.103-.216.16-.346.16zm3.025 2c-.133 0-.26-.052-.355-.143a.4842.4842 0 010-.695l8.98-9.012c.196-.196.518-.2.719-.01.201.19.206.504.01.7l-8.98 9.007c-.097.1-.233.155-.374.153zm6.002 0c-.203 0-.386-.12-.465-.303a.4833.4833 0 01.106-.535l8.986-9.014c.196-.194.517-.198.717-.007.2.19.203.503.007.697l-8.986 9.01a.5195.5195 0 01-.365.152zm5.998 0c-.133 0-.26-.052-.355-.143a.4842.4842 0 010-.695l8.985-9.014c.195-.194.516-.198.716-.007.2.19.203.503.007.697l-8.979 9.01a.514.514 0 01-.374.152zm6.008 0c-.205.001-.39-.117-.47-.3-.08-.184-.038-.396.105-.538l8.982-9.012c.196-.196.518-.2.719-.01.201.19.206.504.01.7l-8.987 9.007a.5148.5148 0 01-.36.153zm6.945 0a.4729.4729 0 01-.32-.131.4444.4444 0 010-.638l4.044-4.069c.112-.13.289-.188.46-.15.17.037.303.164.346.328a.4402.4402 0 01-.142.45l-4.04 4.07a.4712.4712 0 01-.348.14zm-27.954-29c-.195 0-.373-.122-.455-.312-.082-.19-.053-.414.074-.574 4.083-5.14 10.068-8.107 16.372-8.114 6.304-.007 12.294 2.945 16.388 8.077.18.225.155.564-.056.757-.21.192-.527.166-.707-.06-3.902-4.893-9.614-7.708-15.625-7.7-6.011.007-11.717 2.835-15.61 7.738-.095.12-.234.188-.38.188zm.004-12.02c-.228.002-.429-.14-.488-.347-.059-.206.039-.423.237-.528 10.023-5.473 22.428-5.473 32.451 0 .174.074.289.233.295.412.006.179-.098.345-.267.429-.17.083-.375.07-.53-.036-9.71-5.3-21.727-5.3-31.437 0a.5146.5146 0 01-.26.07z"></path><path d="M196.376 240.998c-.279.024-.526-.17-.55-.433-.026-.263.18-.495.46-.519l.728-.119-9.458-2.984-4.612-8.792-4.608 8.787-9.144 3.075.365.028c.277.02.485.248.465.51-.022.26-.264.457-.541.438l-1.846-.134c-.325-.028-.587-.264-.629-.569-.042-.304.145-.596.452-.702l10.155-3.412 5.33-10.172 5.341 10.172 10.242 3.232c.301.094.496.37.472.667-.024.298-.26.543-.573.594l-1.957.324-.092.009z"></path><path d="M192.913 237.995a.456.456 0 01-.138 0 .492.492 0 01-.294-.23.4659.4659 0 01-.041-.365l2.105-6.986-7.914 2.254c-.261.074-.535-.072-.611-.326-.076-.254.074-.52.335-.595L196 229l-2.613 8.669c-.069.197-.26.328-.474.326zm-18.782.005c-.226.008-.43-.133-.493-.342L171 229l9.645 2.717c.261.073.411.337.335.588-.076.251-.35.396-.611.322l-7.914-2.228 2.13 6.994c.076.251-.074.514-.336.588a.5191.5191 0 01-.118.019zm9.364-84c-6.3 0-12.285-2.961-16.375-8.104-.116-.146-.151-.348-.091-.53.06-.18.205-.314.381-.35.176-.035.357.034.473.18 3.906 4.91 9.622 7.734 15.638 7.727 6.016-.008 11.726-2.846 15.622-7.765.184-.198.48-.212.68-.03.2.182.235.497.082.725-4.087 5.172-10.09 8.152-16.41 8.147z"></path><path d="M183.05 151l-5.332-10.175-10.244-3.229c-.301-.094-.496-.37-.472-.668.024-.298.26-.543.573-.593l1.958-.324c.132-.022.268.006.379.078.11.073.185.183.208.308a.4547.4547 0 01-.085.357c-.078.104-.197.174-.33.195l-.723.119 9.46 2.98 4.608 8.8 4.61-8.795 9.15-3.07-.364-.03c-.279-.02-.489-.248-.468-.511.021-.263.265-.46.544-.44l1.842.137c.32.025.581.255.629.555.047.3-.132.591-.432.702l-10.158 3.414L183.05 151z"></path><path d="M171 147l2.613-8.657c.05-.164.187-.29.359-.33.171-.04.352.012.473.137a.468.468 0 01.115.466l-2.105 6.972 7.914-2.249c.169-.048.352-.005.479.114a.47.47 0 01.138.46c-.042.165-.172.297-.341.345L171 147zm25 0l-9.645-2.716c-.169-.048-.299-.178-.34-.343-.043-.164.01-.338.137-.455.128-.117.31-.16.48-.112l7.918 2.228-2.132-6.992c-.05-.163-.006-.339.115-.462.122-.123.302-.174.474-.135.172.04.308.164.359.327L196 147zm-7.484 69c-.285 0-.516-.227-.516-.508V197.9c0-3.259 2.686-5.9 6-5.9s6 2.641 6 5.9v16.353c0 .28-.231.508-.516.508-.286 0-.517-.227-.517-.508V197.9c0-2.698-2.224-4.885-4.967-4.885-2.743 0-4.967 2.187-4.967 4.885v17.592c0 .28-.231.508-.517.508z"></path><path d="M197.5 217c-.276 0-.5-.227-.5-.507v-13.947c0-1.399-1.12-2.533-2.5-2.533s-2.5 1.134-2.5 2.533v11.982c0 .28-.224.506-.5.506s-.5-.226-.5-.506v-11.982c0-1.958 1.567-3.546 3.5-3.546s3.5 1.588 3.5 3.546v13.947c0 .28-.224.507-.5.507zm-18-2c-.276 0-.5-.226-.5-.506v-10.953c0-1.955 1.567-3.541 3.5-3.541s3.5 1.586 3.5 3.541v10.903c0 .279-.224.505-.5.505s-.5-.226-.5-.505V203.54c0-1.397-1.12-2.53-2.5-2.53s-2.5 1.133-2.5 2.53v10.953c0 .28-.224.506-.5.506zm-10 2c-.276 0-.5-.226-.5-.505v-13.959c0-1.953 1.567-3.536 3.5-3.536s3.5 1.583 3.5 3.536v11.893c0 .279-.224.505-.5.505s-.5-.226-.5-.505v-11.893c0-1.395-1.12-2.526-2.5-2.526s-2.5 1.131-2.5 2.526v13.959c0 .279-.224.505-.5.505z"></path><path d="M177.516 216c-.285 0-.516-.229-.516-.511v-17.717c.095-3.215 2.753-5.772 6-5.772s5.905 2.557 6 5.772v16.47c0 .282-.231.51-.516.51-.285 0-.516-.228-.516-.51v-16.47c-.087-2.656-2.285-4.765-4.968-4.765s-4.881 2.109-4.968 4.765v17.717c0 .282-.23.511-.516.511z"></path><path d="M167.516 216c-.285 0-.516-.227-.516-.508V197.9c0-3.259 2.686-5.9 6-5.9s6 2.641 6 5.9v16.353c0 .28-.231.508-.516.508-.286 0-.517-.227-.517-.508V197.9c0-2.698-2.224-4.885-4.967-4.885-2.743 0-4.967 2.187-4.967 4.885v17.592c0 .28-.231.508-.517.508z"></path><path d="M199.497 193h-31.994c-.278 0-.503-.224-.503-.5s.225-.5.503-.5h31.994c.278 0 .503.224.503.5s-.225.5-.503.5zm0-31h-31.994c-.278 0-.503-.224-.503-.5s.225-.5.503-.5h31.994c.278 0 .503.224.503.5s-.225.5-.503.5z"></path><path d="M182.996 193c-.239 0-.449-.16-.515-.392l-3.281-11.484c-.514-1.802-.02-3.745 1.29-5.071.664-.674 1.566-1.053 2.506-1.053.94 0 1.842.379 2.507 1.053 1.313 1.324 1.81 3.267 1.3 5.071l-3.292 11.474c-.063.234-.275.396-.515.392v.01zm0-17.007c-.68-.003-1.334.271-1.815.76-1.056 1.07-1.454 2.639-1.04 4.093l2.855 9.988 2.855-9.988c.413-1.454.015-3.021-1.04-4.093-.48-.489-1.134-.763-1.815-.76z"></path><path d="M183.433 192c-.14 0-.275-.046-.378-.131l-9.272-7.531c-1.454-1.182-2.085-2.986-1.646-4.71.465-1.824 2.473-2.961 4.486-2.54 1.905.398 3.42 1.703 3.954 3.407l3.399 10.854c.074.218-.027.454-.243.571a.6226.6226 0 01-.3.08zm-7.658-14.06c-.505.001-1 .13-1.428.37-.61.344-1.041.895-1.2 1.528-.357 1.392.153 2.85 1.33 3.801l8.06 6.561-2.954-9.438c-.434-1.374-1.656-2.427-3.192-2.751a2.9677 2.9677 0 00-.616-.07z"></path><path d="M182.494 192h-.081l-11.344-1.888c-1.78-.293-3.262-1.557-3.867-3.297-.641-1.839.293-3.862 2.087-4.52 1.698-.62 3.59-.246 4.941.978l8.594 7.798c.175.155.226.412.124.626-.084.18-.26.297-.454.303zm-11.54-9.006c-.458 0-.914.08-1.345.24-1.297.478-1.972 1.942-1.51 3.272.49 1.404 1.687 2.424 3.123 2.662l9.873 1.614-7.495-6.78c-.73-.661-1.67-1.026-2.645-1.028v.02z"></path><path d="M183.528 192c-.204.001-.39-.12-.477-.308-.101-.214-.048-.472.129-.626l8.592-7.793c1.35-1.224 3.243-1.599 4.94-.978 1.793.66 2.725 2.68 2.087 4.518-.605 1.739-2.087 3.002-3.867 3.295L183.614 192h-.086zm11.543-9.02c-.974 0-1.915.365-2.645 1.026l-7.49 6.777 9.867-1.633c1.436-.239 2.632-1.258 3.122-2.66.463-1.33-.211-2.793-1.508-3.271a3.894 3.894 0 00-1.346-.24z"></path><path d="M183.57 192a.6226.6226 0 01-.3-.08c-.216-.118-.318-.352-.249-.572l3.404-10.853c.532-1.703 2.045-3.008 3.947-3.407.968-.204 1.985-.05 2.827.426.842.477 1.44 1.237 1.664 2.114.439 1.724-.192 3.528-1.645 4.71l-9.276 7.53c-.1.088-.234.135-.372.132zm7.65-14.06c-.205 0-.41.02-.61.062-1.538.321-2.76 1.375-3.191 2.75l-2.96 9.439 8.065-6.561c1.174-.953 1.683-2.41 1.33-3.8-.284-1.111-1.375-1.898-2.633-1.899v.01zm-23.506.06c-.258 0-.484-.16-.555-.392-.06-.19.007-.394.17-.52l3.458-11.249c.444-1.452.016-3.017-1.12-4.088-.556-.524-1.325-.798-2.112-.754-.292.014-.54-.197-.554-.471-.015-.274.21-.507.501-.521 1.08-.053 2.131.328 2.894 1.047 1.41 1.325 1.942 3.265 1.389 5.065l-3.533 11.471c-.07.223-.281.38-.528.392l-.01.02z"></path><path d="M167.528 179c-.204.001-.39-.12-.477-.308-.101-.214-.048-.472.129-.626l8.591-7.793c1.35-1.224 3.243-1.599 4.94-.978.863.315 1.567.968 1.958 1.816.391.847.438 1.82.128 2.702-.606 1.737-2.087 3-3.866 3.295l-11.346 1.882-.057.01zm11.532-9.02c-.974 0-1.915.365-2.644 1.026l-7.49 6.777 9.886-1.633c1.436-.24 2.632-1.261 3.121-2.665.46-1.328-.214-2.788-1.508-3.266-.435-.16-.893-.241-1.355-.24h-.01z"></path><path d="M167.57 179a.6732.6732 0 01-.306-.08c-.212-.12-.31-.353-.243-.571l3.405-10.854c.532-1.703 2.045-3.008 3.948-3.407.967-.204 1.983-.05 2.825.427.842.476 1.44 1.236 1.661 2.113.444 1.723-.185 3.529-1.64 4.71l-9.293 7.521c-.097.084-.224.134-.357.141zm7.652-14.06c-.207.002-.413.024-.615.066-1.538.321-2.76 1.376-3.188 2.751l-2.96 9.439 8.067-6.561c1.174-.954 1.684-2.41 1.33-3.801-.16-.635-.595-1.185-1.205-1.528-.433-.244-.934-.371-1.444-.365h.015zM199.415 179c-.264 0-.496-.16-.569-.392l-3.625-11.484c-.568-1.802-.022-3.745 1.425-5.071.731-.677 1.73-1.057 2.77-1.053.298 0 .541.222.541.497 0 .274-.243.496-.542.496-.752-.002-1.474.271-2.005.76-1.165 1.072-1.605 2.639-1.149 4.093l3.55 11.24c.155.122.222.314.173.497-.066.227-.286.388-.542.397l-.027.02z"></path><path d="M199.432 179c-.139-.002-.273-.048-.377-.131l-9.272-7.531c-1.454-1.182-2.085-2.986-1.646-4.71.465-1.824 2.473-2.961 4.486-2.54 1.905.398 3.42 1.703 3.953 3.407l3.4 10.849c.074.22-.026.457-.244.576a.6197.6197 0 01-.3.08zm-7.652-14.06c-.506 0-1.001.13-1.428.375-.61.344-1.045.894-1.206 1.528-.356 1.392.154 2.849 1.33 3.8l8.061 6.562-2.954-9.453c-.432-1.375-1.655-2.428-3.193-2.75-.2-.042-.405-.062-.61-.062z"></path><path d="M198.49 179h-.08l-11.341-1.884c-1.779-.295-3.26-1.56-3.867-3.299-.64-1.839.293-3.863 2.086-4.522 1.698-.621 3.59-.246 4.94.979l8.592 7.801c.177.154.23.412.13.626-.088.18-.264.294-.46.299zm-11.536-9.03c-.459 0-.914.081-1.346.24-1.296.477-1.971 1.94-1.508 3.27.49 1.405 1.685 2.426 3.121 2.667l9.867 1.634-7.49-6.783c-.73-.661-1.67-1.027-2.644-1.027zm-3.436-4.97c-.247 0-.464-.186-.531-.456l-.967-3.802c-.078-.306.076-.627.344-.716.269-.09.55.086.628.392l.506 2.066.505-2.066c.079-.307.36-.484.63-.395.27.09.425.411.347.719l-.966 3.802c-.064.257-.263.44-.496.456z"></path><path d="M182.484 165h-.086l-11.384-2.183c-1.123-.217-2.149-.879-2.909-1.878-.16-.234-.135-.575.055-.775.19-.2.48-.19.66.023.613.806 1.441 1.34 2.347 1.516l9.909 1.889-2.506-2.619c-.185-.21-.197-.554-.028-.781.17-.227.46-.257.66-.067l3.627 3.784c.159.171.213.44.137.677-.076.238-.266.397-.482.403V165z"></path><path d="M183.52 165c-.218-.003-.41-.162-.487-.4-.076-.24-.02-.508.142-.678l3.616-3.751c.124-.15.308-.205.478-.145.17.06.297.226.331.43.034.205-.031.415-.17.546l-2.492 2.589 9.872-1.876c.903-.174 1.728-.705 2.34-1.505.11-.162.288-.239.461-.2.174.039.315.187.368.385.052.198.007.414-.117.562-.758.991-1.78 1.65-2.9 1.864l-11.352 2.173-.09.006zm-.023-64l-16.236-16.364c-.348-.352-.348-.92 0-1.272L183.497 67l16.242 16.364c.348.352.348.92 0 1.272L183.497 101zm-15.443-17l15.443 15.56 15.45-15.57-15.45-15.545L168.054 84z"></path><path d="M182.998 93L175 84.998 183.002 77 191 84.998 182.998 93zm-6.653-8.002l6.653 6.652 6.652-6.652-6.652-6.653-6.653 6.653z"></path><path d="M182.998 107L175 99.005 183.002 91 191 99.005 182.998 107zm-6.653-8.01l6.653 6.66 6.652-6.66-6.652-6.658-6.653 6.658zm23.158 8.01a.477.477 0 01-.34-.144l-8.01-7.966c-.127-.127-.18-.316-.14-.495.042-.18.172-.322.342-.374.169-.052.352-.006.48.121l8.009 7.966c.148.145.196.37.12.567-.074.198-.258.326-.461.325z"></path><path d="M183.5 135c-.276 0-.5-.22-.5-.493V89.493c0-.272.224-.493.5-.493s.5.22.5.493v45.014c0 .272-.224.493-.5.493zm-16.011-28c-.201.002-.382-.129-.456-.328-.073-.2-.023-.427.126-.57l8.021-7.963c.127-.126.309-.17.475-.116.167.054.293.199.333.38.039.18-.016.369-.143.495l-8.026 7.963c-.09.089-.208.139-.33.139zm27.029 29c-.223.008-.422-.145-.48-.37l-8.017-30.985c-.051-.174-.007-.364.115-.494.123-.13.304-.182.473-.133.169.05.299.19.339.368l8.036 30.985c.067.264-.083.536-.336.609a.4104.4104 0 01-.13.02zm-22.054-.004a.531.531 0 01-.126 0c-.246-.075-.39-.349-.32-.613l8.06-30.983c.035-.184.162-.33.33-.381.168-.051.349.003.468.14.118.137.156.334.096.51l-8.06 30.953c-.053.22-.237.373-.448.374zM199.481 120a.5274.5274 0 01-.45-.252L188.1 101.816a.509.509 0 01-.04-.543c.094-.173.28-.279.479-.273.2.006.378.123.46.302l10.926 17.902c.149.243.07.557-.177.704a.5284.5284 0 01-.267.092zm-31.977-1a.5102.5102 0 01-.267-.078c-.235-.143-.307-.44-.162-.669l10.989-17.023c.148-.229.46-.299.697-.156.238.143.31.445.162.674l-10.989 16.998c-.086.153-.25.25-.43.254zm15.475-43L175 68l8.002-8L191 68l-8.021 8zm-6.653-8l6.653 6.65L189.63 68l-6.652-6.65-6.653 6.65z"></path><path d="M175.54 69c-.121 0-.238-.05-.326-.138l-8.04-7.987c-.137-.117-.2-.304-.164-.484.037-.181.168-.325.339-.374.17-.048.353.007.473.143l8.04 7.992c.184.192.184.503 0 .695a.462.462 0 01-.321.153zm7.96-8c-.276 0-.5-.223-.5-.498V31.498c0-.275.224-.498.5-.498s.5.223.5.498v29.004c0 .275-.224.498-.5.498zm6.996 8c-.204 0-.387-.134-.461-.336-.075-.202-.026-.432.123-.58l8-7.941c.131-.13.317-.175.488-.12.17.056.301.204.341.39.04.185-.015.378-.146.508l-8.006 7.941a.478.478 0 01-.339.138zm-9.967-5c-.219.008-.414-.147-.47-.373l-8.038-31.976c-.05-.176-.007-.367.112-.499.12-.132.298-.183.463-.134.166.05.293.192.332.371l8.057 31.977c.065.268-.084.542-.334.614a.565.565 0 01-.122.02zm4.981-.004a.6275.6275 0 01-.137 0 .5063.5063 0 01-.307-.236.5028.5028 0 01-.048-.383l8.985-32.008c.075-.269.355-.425.626-.35.27.075.428.353.352.622l-8.984 32.003a.5066.5066 0 01-.487.352zM178.491 66c-.176-.002-.34-.092-.431-.24l-11.022-18.07c-.096-.231-.005-.496.213-.622.219-.125.498-.073.655.122l11.022 18.07c.143.236.066.542-.173.684a.5114.5114 0 01-.264.055zm10.029 0a.5368.5368 0 01-.277-.076.5018.5018 0 01-.23-.316.4912.4912 0 01.068-.38l10.936-16.96c.092-.167.272-.27.468-.268.195.002.373.11.46.28.087.168.07.37-.046.523l-10.936 16.96c-.095.148-.263.237-.444.237zm9.965 19h-31.97c-.284 0-.515-.224-.515-.5s.23-.5.515-.5h31.97c.284 0 .515.224.515.5s-.23.5-.515.5z"></path><path d="M183.5 92c-.276 0-.5-.225-.5-.503V60.503c0-.278.224-.503.5-.503s.5.225.5.503v30.994c0 .278-.224.503-.5.503zm15.998 43h-31.996c-.277 0-.502-.224-.502-.5s.225-.5.502-.5h31.996c.277 0 .502.224.502.5s-.225.5-.502.5zM183.5 162c-.276 0-.5-.24-.5-.535v-7.93c0-.295.224-.535.5-.535s.5.24.5.535v7.93c0 .295-.224.535-.5.535zm-16.031 0a.421.421 0 01-.26-.088c-.215-.157-.274-.474-.132-.71l6.057-9.972c.093-.153.255-.24.423-.229.169.012.319.12.394.286.075.165.063.361-.03.515l-6.057 9.966c-.087.146-.236.233-.395.232zm31.062 0c-.157 0-.304-.088-.39-.232l-6.062-9.966c-.07-.114-.094-.253-.07-.387.025-.135.098-.253.202-.328.105-.076.232-.104.355-.077.123.027.231.107.3.22l6.057 9.972c.142.236.083.553-.132.71a.409.409 0 01-.26.088zm-8.011-.003c-.224.007-.422-.147-.478-.372l-2.025-8a.5052.5052 0 01.047-.377c.064-.115.17-.198.293-.232a.4632.4632 0 01.363.053c.11.067.19.176.22.304l2.045 8.014c.032.127.013.263-.051.377a.483.483 0 01-.294.228c-.04.009-.08.01-.12.005zM174.517 161a.491.491 0 01-.17-.03.5156.5156 0 01-.297-.256.4861.4861 0 01-.02-.383l2.976-8.03c.108-.241.392-.36.65-.272.257.088.399.354.324.607l-2.97 8.03c-.073.2-.271.335-.493.334zm24.041-10c-.093 0-.184-.036-.259-.104l-2.146-1.93c-.172-.184-.203-.505-.071-.736.133-.232.385-.298.58-.153l2.15 1.923c.158.138.226.388.167.617-.058.23-.229.385-.421.383zm-31.115 0c-.14-.001-.273-.084-.356-.223-.07-.116-.1-.262-.082-.405.017-.143.08-.271.176-.357l2.111-1.91c.096-.085.215-.12.332-.098.117.022.221.1.29.218.144.24.102.578-.093.756l-2.111 1.91c-.077.07-.17.109-.267.109zM168 268H33v-28h135v28zm-134.004-.987h133.008v-26.026H33.996v26.026z"></path><path d="M166 257h-8.504c-.274 0-.496-.224-.496-.5s.222-.5.496-.5h7.512v-4h-7.284c-.274 0-.496-.224-.496-.5s.222-.5.496-.5H166v6zm-53.437 2H75.495c-.273 0-.495-.228-.495-.508s.222-.508.495-.508h37.068c.512 0 .926-.426.926-.95.006-3.883 3.072-7.028 6.856-7.034h33.16c.273 0 .495.228.495.508s-.222.508-.495.508h-33.16c-3.238.003-5.862 2.695-5.865 6.017 0 1.086-.858 1.967-1.917 1.967zm-44.213 5H32v-6h36.5c.276 0 .5.224.5.5s-.224.5-.5.5H33v4h35.35c.276 0 .5.224.5.5s-.224.5-.5.5z"></path><path d="M111.703 264H74.497c-.274 0-.497-.228-.497-.508s.223-.508.497-.508h37.206c1.562.002 3.062-.63 4.169-1.757 1.106-1.127 1.73-2.658 1.732-4.255 0-1.09.864-1.972 1.93-1.972h32.969c.274 0 .497.228.497.508s-.223.508-.497.508h-32.99c-.516 0-.934.428-.934.956-.006 3.879-3.081 7.022-6.876 7.028z"></path><path d="M159 259h-6v-9h6v9zm-5.077-1.016h4.154v-6.968h-4.154v6.968zM74 266h-7v-9h7v9zm-5.965-.98h4.93v-7.04h-4.93v7.04z"></path><path d="M155.506 255a1.4983 1.4983 0 01-1.39-.922A1.4998 1.4998 0 11157 253.5c0 .826-.668 1.496-1.494 1.5zm0-1.723c-.123 0-.223.1-.223.223-.015.088.023.176.098.224.074.05.17.05.245 0a.2219.2219 0 00.097-.224c0-.12-.096-.22-.217-.223zM71.5 264c-.828 0-1.5-.672-1.5-1.5s.672-1.5 1.5-1.5 1.5.672 1.5 1.5c-.003.827-.673 1.497-1.5 1.5zm0-1.723c-.123 0-.223.1-.223.223s.1.223.223.223.223-.1.223-.223-.1-.223-.223-.223zM166.501 245H56.5c-.276 0-.499-.224-.499-.5s.223-.5.499-.5h110c.276 0 .499.224.499.5s-.223.5-.499.5zm0 2H56.5c-.276 0-.499-.224-.499-.5s.223-.5.499-.5h110c.276 0 .499.224.499.5s-.223.5-.499.5zm0 3H56.5c-.276 0-.499-.224-.499-.5s.223-.5.499-.5h110c.276 0 .499.224.499.5s-.223.5-.499.5zm-115.837 6H32v-15h21v12.796c-.003 1.218-1.048 2.204-2.336 2.204zm-17.655-.954h17.655c.728-.003 1.317-.562 1.317-1.25v-11.842H32.999l.01 13.092z"></path><path d="M51 254h-7v-11h7v11zm-6-.98h5v-9.04h-5v9.04zM38.505 249a2.5013 2.5013 0 01-2.314-1.54 2.5032 2.5032 0 01.541-2.728 2.4998 2.4998 0 012.727-.54A2.4983 2.4983 0 0141 246.505c0 .662-.263 1.296-.73 1.764a2.498 2.498 0 01-1.765.731zm0-3.964a1.4685 1.4685 0 00-1.36.903c-.23.55-.105 1.182.314 1.603.42.421 1.052.548 1.602.32.55-.226.908-.762.908-1.357 0-.81-.654-1.466-1.464-1.469z"></path><path d="M38.5 246c-.276 0-.5-.24-.5-.538v-2.924c0-.297.224-.538.5-.538s.5.24.5.538v2.924c0 .297-.224.538-.5.538zm1 7a1.499 1.499 0 01-1.386-.926 1.501 1.501 0 01.325-1.635c.43-.429 1.075-.557 1.635-.325.56.232.926.78.926 1.386-.003.827-.673 1.497-1.5 1.5zm0-2.043c-.222 0-.422.134-.506.34-.085.205-.037.44.12.597.158.156.394.202.599.115a.5477.5477 0 00.335-.509.5484.5484 0 00-.548-.543zm15.76.043H52v-7h3.26c.96 0 1.74.754 1.74 1.685v3.625c.001.448-.181.878-.508 1.195-.327.317-.77.495-1.233.495zm-2.227-1h2.226c.188 0 .368-.072.5-.2.133-.13.208-.303.208-.485v-3.625c0-.378-.317-.685-.708-.685h-2.226V250zm7.467 0c-.276 0-.5-.198-.5-.441v-4.118c0-.243.224-.441.5-.441s.5.198.5.441v4.118c0 .243-.224.441-.5.441zm34-4c-.276 0-.5-.238-.5-.532v-3.936c0-.294.224-.532.5-.532s.5.238.5.532v3.936c0 .294-.224.532-.5.532zm19.983 10h-19.31c-.649-.003-1.173-.526-1.173-1.17v-5.317c0-.283.231-.513.517-.513.285 0 .517.23.517.513v5.317c0 .077.061.14.14.144h19.31c.285 0 .516.23.516.513 0 .283-.231.513-.517.513z"></path><path d="M96.5 254c-.828 0-1.5-.672-1.5-1.5s.672-1.5 1.5-1.5 1.5.672 1.5 1.5c0 .398-.158.78-.44 1.06-.28.282-.662.44-1.06.44zm0-2.149a.64.64 0 00-.64.64c0 .354.286.64.64.64.354 0 .64-.286.64-.64-.004-.35-.29-.631-.64-.631v-.009zm32 15.149c-.828 0-1.5-.672-1.5-1.5s.672-1.5 1.5-1.5 1.5.672 1.5 1.5c0 .398-.158.78-.44 1.06-.28.282-.662.44-1.06.44zm0-2.149a.64.64 0 00-.64.64c0 .354.286.64.64.64.354 0 .64-.286.64-.64-.004-.35-.29-.631-.64-.631v-.009zM138.75 269H133v-3.384c.003-3.1 2.541-5.613 5.673-5.616h24.818c.281 0 .509.225.509.504 0 .278-.228.503-.509.503h-24.818c-2.57.003-4.653 2.065-4.655 4.609v2.377h3.714v-2.377c0-.515.421-.932.94-.932h24.82c.28 0 .508.225.508.503 0 .279-.228.504-.509.504H138.75V269z"></path><path d="M168 267h-2.905c-1.155 0-2.092-.963-2.095-2.154v-4.692c.003-1.19.94-2.154 2.095-2.154H168v9zm-2.905-7.952c-.287-.001-.562.115-.765.324-.204.208-.318.491-.318.787v4.693c.003.614.487 1.11 1.083 1.11h1.893v-6.914h-1.893zM161.5 265c-.276 0-.5-.208-.5-.465v-4.07c0-.257.224-.465.5-.465s.5.208.5.465v4.07c0 .257-.224.465-.5.465zm-35.948 4c-.305 0-.552-.24-.552-.536v-5.188c0-.752.627-1.362 1.401-1.362h1.198c.164 0 .298-.13.298-.29v-6.088c0-.296.247-.536.551-.536.305 0 .552.24.552.536v6.089c0 .752-.627 1.361-1.401 1.361H126.4c-.164 0-.298.13-.298.29v5.188c0 .142-.058.278-.161.379-.104.1-.244.157-.39.157zM65.5 246c-.276 0-.5-.238-.5-.532v-3.936c0-.294.224-.532.5-.532s.5.238.5.532v3.936c0 .294-.224.532-.5.532zm0 13c-.276 0-.5-.217-.5-.484v-9.032c0-.267.224-.484.5-.484s.5.217.5.484v9.032c0 .267-.224.484-.5.484zm0 9c-.276 0-.5-.225-.5-.504v-3.992c0-.279.224-.504.5-.504s.5.225.5.504v3.992c0 .279-.224.504-.5.504zm-20.034-19a.496.496 0 01-.326-.125.4478.4478 0 010-.651l2.03-2.078c.117-.12.292-.171.46-.134.166.038.3.158.35.316.05.159.007.33-.11.45l-2.03 2.078a.4924.4924 0 01-.374.143zm.24 3a.7388.7388 0 01-.492-.191c-.137-.132-.214-.312-.214-.5s.077-.368.214-.5l1.534-1.586c.273-.284.732-.299 1.023-.032.292.267.307.713.033.997l-1.534 1.586a.7326.7326 0 01-.564.225zm62.996-197H92.273l-.955-12.135c-3.347-.882-6.555-2.244-9.529-4.045l-9.08 7.897L61.105 34.85l7.72-9.28c-1.758-3.04-3.089-6.319-3.952-9.739L53 14.85V.527c0-.281.223-.509.498-.509s.498.228.498.509v13.387l11.669.961.09.357c.858 3.568 2.243 6.982 4.106 10.125l.19.315-7.592 9.123 10.31 10.538 8.926-7.76.308.189c3.084 1.906 6.432 3.323 9.932 4.202l.348.087.941 11.931h14.582l.945-11.931.344-.087c3.493-.88 6.835-2.297 9.912-4.202l.303-.189 8.926 7.76 10.315-10.538-7.621-9.123.189-.315c1.868-3.143 3.26-6.557 4.127-10.125l.084-.357 11.674-.961V.527c0-.281.223-.509.498-.509s.498.228.498.509V14.85l-11.878.982c-.859 3.421-2.19 6.7-3.953 9.739l7.726 9.28-11.619 11.866-9.09-7.897c-2.973 1.803-6.18 3.165-9.529 4.045L108.702 55zm-8.21-25.47c-7.036-.003-13.669-3.36-17.937-9.077-4.268-5.717-5.683-13.142-3.827-20.079a.507.507 0 01.234-.307c.114-.067.25-.085.378-.049a.5.5 0 01.301.24.514.514 0 01.047.386c-2.394 8.964.968 18.5 8.407 23.842 7.439 5.341 17.356 5.341 24.795 0 7.44-5.342 10.801-14.878 8.407-23.842-.047-.175 0-.363.126-.493.125-.129.308-.18.48-.134.172.046.307.182.354.357 1.857 6.937.441 14.362-3.827 20.08-4.268 5.717-10.901 9.073-17.937 9.075z"></path><path d="M100.512 29c-.229-.002-.43-.144-.505-.354l-6.94-21.65L78.376 2.2c-.183-.048-.323-.19-.364-.369a.487.487 0 01.168-.484.5158.5158 0 01.519-.077l15.182 4.954 6.636 20.714 6.767-20.694 15.04-5.216c.264-.09.553.044.647.3.093.257-.045.54-.308.63l-14.566 5.068-7.176 21.95h-.39l-.02.024z"></path><path d="M81.67 18c-.178 0-.35-.072-.476-.2a.6905.6905 0 01-.147-.73l5.47-13.707c.056-.185.21-.322.399-.355.189-.034.38.044.494.199.114.155.131.362.045.534l-5.19 12.97L95.287 11.6c.17-.076.368-.052.515.063.148.115.22.303.19.488s-.16.339-.335.4l-13.739 5.404a.6009.6009 0 01-.248.046zm36.59 0a.7742.7742 0 01-.26-.046l-13.673-5.291c-.263-.102-.394-.4-.293-.665a.5088.5088 0 01.66-.296l13.047 5.05-5.17-13.048c-.104-.264.023-.562.285-.667.261-.105.557.023.661.287l5.42 13.648c.101.229.08.494-.058.702a.7196.7196 0 01-.619.326zM25.508 56C13.082 55.99 3.01 46.265 3 34.267V1h7.433v33.267c0 8.03 6.742 14.541 15.06 14.541 8.316 0 15.059-6.51 15.059-14.541V1H48v33.267C47.989 46.259 37.928 55.98 25.508 56zM4.02 1.985v32.282c0 11.459 9.62 20.748 21.488 20.748 11.867 0 21.488-9.289 21.488-20.748V1.985h-5.41v32.282c0 8.574-7.198 15.526-16.078 15.526-8.88 0-16.08-6.952-16.08-15.526V1.985H4.02z"></path><path d="M51 78h-7V44.891c0-.276.224-.5.5-.5s.5.224.5.5V77h5V.5c0-.277.224-.501.5-.501s.5.224.5.5V78zM13.535 32c-.295 0-.535-.228-.535-.509V17.08c.012-1.564 1.347-2.827 2.991-2.83h9.018c1.06 0 1.92-.818 1.92-1.827V.51c0-.281.24-.509.536-.509.295 0 .535.228.535.509v11.898c.004.757-.31 1.485-.87 2.022-.562.536-1.325.838-2.121.838H15.99c-1.06 0-1.92.818-1.92 1.827v14.397c0 .281-.24.509-.536.509z"></path><path d="M18.5 23c-1.38 0-2.5-1.12-2.5-2.5s1.12-2.5 2.5-2.5 2.5 1.12 2.5 2.5c-.003 1.38-1.12 2.497-2.5 2.5zm0-3.906c-.776 0-1.406.63-1.406 1.406 0 .776.63 1.406 1.406 1.406.776 0 1.406-.63 1.406-1.406-.006-.773-.633-1.397-1.406-1.4v-.006zM31.473 7C30.096 6.985 28.99 5.859 29 4.482c.01-1.377 1.132-2.487 2.51-2.482 1.377.005 2.49 1.123 2.491 2.5 0 .668-.267 1.308-.742 1.777-.475.47-1.118.73-1.785.723zm0-3.906c-.773.015-1.389.65-1.379 1.424.01.773.642 1.392 1.415 1.387.773-.004 1.397-.632 1.397-1.405 0-.378-.152-.74-.421-1.004a1.403 1.403 0 00-1.012-.402zM49 80h-5v-3h5v3zm-3.99-1.047h2.98v-.906h-2.98v.906zM50.5 74h-6c-.276 0-.5-.224-.5-.5s.224-.5.5-.5h6c.276 0 .5.224.5.5s-.224.5-.5.5zm0-3h-6c-.276 0-.5-.224-.5-.5s.224-.5.5-.5h6c.276 0 .5.224.5.5s-.224.5-.5.5zm112.41-22H156V.503c0-.278.222-.503.496-.503s.496.225.496.503v47.51h4.932l.084-47.51c0-.278.222-.503.496-.503s.496.225.496.503L162.91 49z"></path><path d="M161.495 49h-3.99c-.28 0-.505-.224-.505-.5s.226-.5.505-.5h3.99c.28 0 .505.224.505.5s-.226.5-.505.5zm1.003-5h-5.996c-.277 0-.502-.224-.502-.5s.225-.5.502-.5h5.996c.277 0 .502.224.502.5s-.225.5-.502.5zm0-2h-5.996c-.277 0-.502-.224-.502-.5s.225-.5.502-.5h5.996c.277 0 .502.224.502.5s-.225.5-.502.5zm0 13h-5.996c-.277 0-.502-.224-.502-.5s.225-.5.502-.5h5.996c.277 0 .502.224.502.5s-.225.5-.502.5zm0-1h-5.996c-.277 0-.502-.224-.502-.5s.225-.5.502-.5h5.996c.277 0 .502.224.502.5s-.225.5-.502.5zm10.578-35h-11.561c-.285 0-.515-.228-.515-.51 0-.28.23-.509.515-.509h11.56c.531.006.968-.412.979-.937.005-3.882 3.18-7.03 7.103-7.044h12.328c.285 0 .515.228.515.51 0 .28-.23.509-.515.509h-12.328c-3.354.014-6.068 2.706-6.074 6.025-.011 1.088-.908 1.962-2.007 1.956zm-16.587 0H133.51c-.282 0-.511-.224-.511-.5s.229-.5.511-.5h22.978c.282 0 .511.224.511.5s-.229.5-.511.5zm.004 6h-24.986c-.28 0-.507-.224-.507-.5s.227-.5.507-.5h24.986c.28 0 .507.224.507.5s-.227.5-.507.5z"></path><path d="M173.427 25h-10.92c-.28 0-.507-.228-.507-.508s.227-.508.506-.508h10.921c3.307-.006 5.985-2.697 5.988-6.017.002-1.085.878-1.964 1.958-1.967h12.12c.28 0 .507.228.507.508s-.227.508-.506.508h-12.12c-.524 0-.947.426-.947.95-.003 3.882-3.134 7.028-7 7.034z"></path><path d="M200 18h-7V9h7v9zm-5.965-.98h4.93V9.98h-4.93v7.04z"></path><path d="M196.5 15c-.828 0-1.5-.672-1.5-1.5s.672-1.5 1.5-1.5 1.5.672 1.5 1.5c0 .398-.158.78-.44 1.06-.28.282-.662.44-1.06.44zm0-1.723c-.123 0-.223.1-.223.223s.1.223.223.223.223-.1.223-.223a.2235.2235 0 00-.055-.175.2279.2279 0 00-.168-.074v.026zm2.005-5.297h-34.25c-1.244 0-2.252-1.052-2.255-2.352V.518c0-.286.222-.518.495-.518.274 0 .496.232.496.518v5.131c.003.727.567 1.315 1.263 1.315h34.25c.274 0 .496.232.496.518 0 .286-.222.518-.495.518v-.02z"></path><path d="M166.492 6c-.828-.005-1.495-.678-1.492-1.506.003-.827.676-1.496 1.503-1.494.827.002 1.497.673 1.497 1.5 0 .4-.16.782-.442 1.064a1.503 1.503 0 01-1.066.436zm0-2.146c-.359.005-.646.299-.642.657.004.359.297.646.656.643.358-.003.646-.296.644-.654 0-.174-.07-.34-.194-.461a.643.643 0 00-.464-.185zM175.504 29a1.4993 1.4993 0 01-1.389-.924c-.233-.56-.105-1.207.324-1.637A1.5002 1.5002 0 01177 27.505c-.002.824-.67 1.493-1.496 1.495zm0-2.146a.6501.6501 0 00-.606.988c.128.209.362.328.606.308.338-.027.598-.31.598-.648 0-.339-.26-.62-.598-.648zM194.5 29a1.5 1.5 0 01-1.059-2.562c.43-.429 1.076-.556 1.636-.323.56.234.925.782.923 1.39-.002.826-.673 1.495-1.5 1.495zm0-2.146a.65.65 0 00-.65.65c0 .36.291.65.65.65.36 0 .65-.29.65-.65a.651.651 0 00-.19-.46.6552.6552 0 00-.46-.19zM172.5 19c-.276 0-.5-.223-.5-.497V7.497c0-.274.224-.497.5-.497s.5.223.5.497v11.006c0 .274-.224.497-.5.497zm0 13c-.276 0-.5-.219-.5-.489V24.49c0-.27.224-.489.5-.489s.5.219.5.489v7.022c0 .27-.224.489-.5.489zm-5.937 30h-3.134c-.79 0-1.429-.784-1.429-1.75V48.534c0-.295.196-.535.437-.535s.437.24.437.535V60.25c0 .376.249.68.555.68h3.134c.241 0 .437.24.437.536 0 .295-.196.535-.437.535z"></path><path d="M166.478 66h-6.782c-2.594 0-4.696-2.077-4.696-4.64V46.516c0-.284.234-.515.522-.515.288 0 .521.23.521.515v14.846c0 1.993 1.636 3.608 3.653 3.608h6.782c.288 0 .522.23.522.516 0 .284-.234.515-.522.515zm-109.5-32c-1.643 0-2.975-1.291-2.978-2.886v-4.641c.009-3.573 2.992-6.467 6.673-6.473h5.639c.291 0 .527.23.527.512 0 .282-.236.511-.527.511h-5.64c-3.102.006-5.615 2.448-5.618 5.46v4.641c.054.992.898 1.77 1.921 1.77 1.024 0 1.868-.778 1.921-1.77v-3.582c.003-1.524 1.277-2.758 2.846-2.758h6.73c.292 0 .528.23.528.512 0 .283-.236.512-.527.512h-6.73c-.988 0-1.79.776-1.793 1.734v3.582c-.008 1.589-1.336 2.873-2.972 2.876zM33.496 200.997a.8065.8065 0 01-.139 0 .4964.4964 0 01-.296-.239.5004.5004 0 01-.041-.379l.496-1.732c.32-1.096 1.343-1.833 2.48-1.787l22.477 1.1c.914.045 1.807-.288 2.47-.921a3.3627 3.3627 0 001.038-2.43c.004-1.557-1.064-2.91-2.575-3.265l-9.01-2.17a2.4815 2.4815 0 01-1.6-1.22 2.492 2.492 0 01-.177-2.007l1.608-4.72c.584-1.74-.315-3.63-2.03-4.27l-2.748-.996c-.61-.22-1.293-.02-1.687.498a2.4763 2.4763 0 01-2.45.907c-.92-.187-1.658-.882-1.902-1.793l-1.304-4.914c-.42-1.56-1.83-2.643-3.439-2.643-.24-.002-.48.021-.714.07a.505.505 0 01-.478-.166.5052.5052 0 01-.097-.497.5041.5041 0 01.381-.333c.3-.06.603-.09.908-.09 2.06.001 3.862 1.39 4.396 3.385l1.315 4.914c.146.546.588.963 1.14 1.076a1.487 1.487 0 001.47-.544c.662-.855 1.8-1.184 2.813-.811l2.749.996c2.217.827 3.38 3.27 2.63 5.52l-1.608 4.725c-.134.397-.096.833.106 1.2.202.368.549.633.956.732l9.04 2.145c2.175.523 3.596 2.62 3.283 4.841-.314 2.222-2.26 3.84-4.494 3.737l-22.476-1.105c-.684-.028-1.298.416-1.489 1.075l-.496 1.732a.4965.4965 0 01-.506.379zM137.77 174h-.314l-10.281-.961c-1.382-.125-2.528-1.07-2.854-2.35l-.228-.88c-.22-.858-.046-1.764.481-2.49.527-.728 1.355-1.207 2.277-1.317l1.31-.159c.14-.015.277-.044.41-.086l4.048-1.24c.337-.103.689-.153 1.043-.15l2.413.024h.03c.828-.003 1.587-.437 1.977-1.13.39-.695.348-1.536-.11-2.191-.809-1.155-.714-2.679.233-3.735l2.297-2.547c1.41-1.56 3.521-2.382 5.678-2.211l1.224.1c1.488.12 2.967-.318 4.119-1.22l2.11-1.654c2.873-2.23 6.944-2.409 10.023-.442l4.023 2.59c.165.09.263.26.254.44-.01.18-.124.341-.297.416a.53.53 0 01-.524-.062l-4.023-2.59c-2.706-1.728-6.283-1.57-8.809.388l-2.115 1.654c-1.354 1.065-3.095 1.583-4.847 1.442l-1.225-.096c-1.83-.145-3.623.552-4.822 1.874l-2.297 2.548c-.653.728-.719 1.78-.162 2.576.663.95.724 2.168.158 3.172-.565 1.004-1.666 1.632-2.865 1.635h-.04l-2.414-.024c-.243-.002-.485.032-.718.1l-4.048 1.241c-.192.062-.39.105-.592.13l-1.31.158c-.636.075-1.207.404-1.57.905-.364.5-.485 1.124-.333 1.715l.228.884c.227.883 1.016 1.532 1.968 1.62l10.287.962c.126.01.253.01.38 0l9.805-.692h.258l15.27.115h.284l3.982.365c.18.017.338.125.413.282.075.157.055.34-.05.48-.107.14-.283.217-.464.2l-3.977-.366h-.197l-15.24-.115h-.183l-9.81.682-.264.01z"></path><path d="M151.273 167c-2.583 0-5.14-1.254-5.971-4.064-1.712-5.773 4.41-10.623 4.67-10.83a.4841.4841 0 01.502-.063c.166.074.282.236.304.425.022.188-.054.374-.199.488-.06.048-5.804 4.61-4.31 9.662.85 2.873 3.98 3.75 6.63 3.133 2.259-.53 4.39-2.22 4.051-4.78-.167-1.243-.628-2.125-1.377-2.587-1.469-.93-3.596-.143-3.616-.138-.26.09-.542-.053-.635-.323-.094-.27.035-.57.29-.675.107-.037 2.609-.962 4.488.228 1.013.648 1.646 1.774 1.853 3.346.426 3.25-2.122 5.349-4.837 5.981-.605.138-1.224.203-1.843.197zm-59.231 31c-.652 0-1.302-.05-1.947-.145l-8.605-1.253a3.557 3.557 0 00-1.26.045l-4.419 1.002a10.559 10.559 0 01-5.098-.12l-9.13-2.506a.5019.5019 0 01-.353-.356c-.045-.174.006-.358.133-.484s.312-.174.484-.127l9.131 2.506c1.506.412 3.09.45 4.613.11l4.418-1.002c.534-.12 1.085-.14 1.626-.06l8.605 1.253c1.473.214 2.973.165 4.428-.146l7.73-1.668c.373-.08.755-.112 1.136-.096l12.823-.426c1.115.05 2.187-.431 2.892-1.297.567-.584.843-1.391.75-2.2-.145-.747-.74-1.438-1.72-2.005a3.5102 3.5102 0 00-1.727-.456H98.671a4.4998 4.4998 0 01-3.332-1.503l-.946-1.057c-1.004-1.132-2.627-1.476-4.002-.847l-2.477 1.127c-.303.138-.62.242-.946.311l-4.202.872c-1.831.374-3.703-.424-4.703-2.004l-2.242-3.593a4.581 4.581 0 01-.28-.527l-2.136-4.745c-.69-1.545-2.393-2.365-4.028-1.94l-3.972 1.028c-.445.112-.903.158-1.361.135l-3.142-.175a4.4633 4.4633 0 01-3.157-1.563 4.4839 4.4839 0 01-1.046-3.368l.115-1.122a3.4568 3.4568 0 00-.45-2.11l-1.406-2.365c-.628-1.064-1.768-1.72-3.002-1.724h-8.265c-2.176.004-4.037-1.565-4.403-3.713l-.5-2.806c-.328-1.798-1.978-3.042-3.793-2.861l-2.441.265a.498.498 0 01-.55-.44.5004.5004 0 01.445-.557l2.441-.26c2.343-.255 4.48 1.357 4.883 3.682l.5 2.807c.286 1.666 1.73 2.883 3.418 2.88h8.265c1.591.006 3.061.852 3.868 2.226l1.365 2.35c.48.818.683 1.768.58 2.71l-.114 1.128c-.1.954.2 1.907.826 2.633.626.726 1.524 1.16 2.48 1.2l3.143.171c.355.018.71-.018 1.055-.105l3.973-1.027c2.108-.542 4.299.516 5.188 2.505l2.137 4.746c.065.14.139.278.22.41l2.236 3.593a3.5008 3.5008 0 003.653 1.564l4.207-.872c.251-.055.496-.136.73-.24l2.477-1.123c1.781-.82 3.888-.377 5.189 1.092l.94 1.053a3.475 3.475 0 002.587 1.162h17.866c.768.01 1.52.218 2.187.601 1.255.717 2 1.644 2.216 2.686a3.7023 3.7023 0 01-.936 3.007 4.5001 4.5001 0 01-3.682 1.669l-12.818.426c-.309-.012-.618.013-.92.075l-7.73 1.658c-.933.202-1.884.304-2.837.306z"></path><path d="M57.641 184c-.425 0-.85-.051-1.265-.155-1.88-.464-3.639-2.016-3.343-4.428.064-1.012.547-1.933 1.306-2.49 1.307-.887 3.044-.207 3.117-.176.16.06.278.21.31.395.03.184-.03.373-.16.492-.13.12-.307.151-.464.082 0 0-1.385-.54-2.308.088-.513.406-.831 1.052-.864 1.753-.217 1.758 1.164 2.913 2.628 3.279 1.727.428 3.763-.17 4.313-2.15.983-3.526-2.813-6.728-2.85-6.759-.205-.17-.248-.492-.097-.722.152-.229.442-.277.647-.108.18.15 4.354 3.676 3.182 7.898-.6 2.078-2.365 3.001-4.152 3.001zm49.859-63c-9.665 0-17.5-8.059-17.5-18s7.835-18 17.5-18 17.5 8.059 17.5 18c-.013 9.935-7.84 17.986-17.5 18zm0-34.995c-6.683 0-12.708 4.14-15.265 10.491-2.557 6.35-1.144 13.66 3.582 18.521 4.725 4.86 11.832 6.315 18.006 3.684 6.174-2.63 10.2-8.827 10.2-15.701-.011-9.381-7.402-16.984-16.523-16.995zM78.5 131c-.28 0-.54-.153-.674-.4l-.86-1.567-1.569-.86c-.245-.136-.397-.394-.397-.674s.152-.538.397-.673l1.568-.856.861-1.573c.136-.245.394-.397.674-.397s.538.152.674.397l.856 1.573 1.573.856c.245.135.397.393.397.673s-.152.538-.397.673l-1.573.861-.856 1.568a.7697.7697 0 01-.674.399zm-2.328-3.501l1.308.716c.13.07.235.178.303.308l.717 1.304.717-1.309c.07-.127.175-.232.303-.303l1.308-.716-1.308-.712a.774.774 0 01-.303-.308l-.717-1.308-.717 1.313a.7616.7616 0 01-.303.303l-1.308.712zM153.013 223c-.255 0-.49-.14-.615-.362l-.712-1.306-1.319-.729c-.225-.12-.367-.354-.367-.61s.142-.491.367-.614l1.305-.71.712-1.306c.124-.224.36-.363.616-.363s.492.139.615.363l.717 1.306 1.304.71c.225.124.364.359.364.614 0 .256-.14.491-.364.615l-1.304.71-.717 1.302a.7019.7019 0 01-.602.38zm-1.837-2.993l1.01.55c.118.066.214.163.28.28l.552 1.008.556-1.008a.693.693 0 01.275-.275l1.002-.555-1.015-.554a.7114.7114 0 01-.28-.28l-.552-1.008-.551 1.013a.7055.7055 0 01-.28.275l-.997.554zM77.5 116c-.28 0-.54-.153-.674-.4l-.86-1.567-1.569-.86c-.245-.136-.397-.394-.397-.674s.152-.538.397-.673l1.568-.861.861-1.568c.136-.245.394-.397.674-.397s.538.152.674.397l.856 1.568 1.573.86c.245.136.397.394.397.674s-.152.538-.397.673l-1.573.861-.856 1.568a.7697.7697 0 01-.674.399zm-2.343-3.501l1.304.716c.13.069.237.174.308.303l.717 1.309.712-1.309c.07-.129.177-.234.307-.303l1.309-.716-1.29-.717a.7409.7409 0 01-.307-.303l-.712-1.308-.717 1.308c-.07.13-.178.235-.308.303l-1.323.717zM147.51 97a.7694.7694 0 01-.676-.4l-.863-1.564-1.573-.861a.77.77 0 01-.398-.674c0-.28.152-.538.398-.673l1.573-.857.863-1.574a.773.773 0 01.676-.397c.28 0 .54.152.675.397l.859 1.574 1.558.852c.246.135.398.393.398.673s-.152.539-.398.674l-1.558.866-.854 1.565c-.136.247-.397.4-.68.399zm-2.34-3.504l1.312.718c.129.07.235.176.309.303l.719 1.309.714-1.31a.812.812 0 01.308-.302l1.312-.718-1.312-.717a.7433.7433 0 01-.308-.303l-.714-1.29-.72 1.31a.768.768 0 01-.303.303l-1.317.697zM107.5 141c-.28 0-.539-.153-.674-.4l-.86-1.572-1.569-.856c-.245-.135-.397-.393-.397-.673s.152-.538.397-.673l1.568-.861.861-1.568c.136-.245.394-.397.674-.397s.538.152.674.397l.856 1.568 1.573.86c.245.136.397.394.397.674s-.152.538-.397.673l-1.573.856-.856 1.573a.7697.7697 0 01-.674.399zm-2.328-3.501l1.308.716c.13.068.236.174.303.303l.717 1.309.717-1.309c.068-.13.174-.237.303-.307l1.308-.712-1.308-.717a.7314.7314 0 01-.303-.303l-.717-1.308-.717 1.318c-.07.13-.177.235-.308.303l-1.303.707z"></path><path d="M104.921 137a.5102.5102 0 01-.311-.099c-17.408-13.243-38.766-22.246-47.15-25.51-.358-.135-.545-.522-.423-.878.108-.366.492-.584.87-.492 10.516 2.654 23.248 9.121 32.08 14.08 9.55 5.369 16.729 10.17 16.8 10.22.225.155.28.458.125.68-.155.223-.465.282-.694.132-.261-.172-23.58-15.76-42.792-22.413 10.29 4.334 27.386 12.4 41.802 23.354.107.08.176.198.193.329.017.13-.02.262-.102.365a.5084.5084 0 01-.398.232zm-29.479-24.039a.5292.5292 0 01-.267-.072c-14.59-8.675-31.896-13.822-38.656-15.634-.355-.08-.58-.418-.504-.761.078-.33.41-.542.757-.485 16.034 2.273 39.726 14.495 39.963 14.621.245.127.337.421.204.657-.132.235-.438.323-.684.196-.192-.102-16.038-8.277-30.482-12.464 8.35 2.709 19.775 7.046 29.907 13.084.19.114.28.336.22.544-.061.207-.258.352-.483.353l.025-.039zM76.418 128a.469.469 0 01-.263-.073c-14.601-8.687-31.91-13.84-38.678-15.655-.335-.1-.535-.429-.462-.758.074-.33.397-.55.745-.51 16.04 2.272 39.744 14.516 39.981 14.637.16.087.258.249.259.424.001.175-.095.338-.253.427a.5256.5256 0 01-.51.003c-.193-.097-16.047-8.288-30.492-12.476 8.349 2.712 19.774 7.05 29.915 13.102.115.068.198.176.229.302s.009.258-.062.368c-.093.13-.245.207-.409.209zm67.799-34a.4993.4993 0 01-.32-.12c-12.981-10.973-29.158-18.77-35.513-21.607-.316-.15-.464-.514-.34-.84a.669.669 0 01.81-.407c15.38 4.668 36.735 20.605 36.946 20.764.22.166.266.478.1.699-.166.22-.48.265-.701.1-.176-.13-14.459-10.79-27.986-17.174 7.773 3.99 18.315 10.08 27.33 17.707.159.136.217.356.144.552a.5009.5009 0 01-.47.326zm7.287 126c-.102 0-.201-.03-.285-.088-12.231-8.367-27.003-13.75-32.787-15.68-.32-.11-.5-.445-.408-.766.09-.321.419-.52.753-.453 13.828 2.777 33.805 14.737 34.004 14.859.221.147.285.438.144.66-.14.222-.434.297-.668.17a185.2505 185.2505 0 00-20.306-10.305c6.936 2.96 13.574 6.547 19.827 10.715.18.122.256.344.19.548-.066.204-.26.342-.48.34h.016zm-4.004-91c-.276 0-.5-.215-.5-.481v-6.038c0-.266.224-.481.5-.481s.5.215.5.481v6.038c0 .266-.224.481-.5.481z"></path><path d="M150.519 126h-6.038c-.266 0-.481-.224-.481-.5s.215-.5.481-.5h6.038c.266 0 .481.224.481.5s-.215.5-.481.5z"></path><path d="M145.513 127a.5145.5145 0 01-.475-.32.513.513 0 01.114-.56l2.967-2.968a.5169.5169 0 01.366-.152.5154.5154 0 01.365.879l-2.971 2.972c-.098.096-.23.15-.366.149z"></path><path d="M148.479 127c-.138 0-.27-.053-.368-.15l-2.986-2.994a.5183.5183 0 01.027-.704.5172.5172 0 01.704-.027l2.99 2.988c.099.097.154.23.154.368 0 .139-.055.271-.153.369-.098.097-.23.15-.368.15zM67.5 71c-.276 0-.5-.215-.5-.481V64.48c0-.266.224-.481.5-.481s.5.215.5.481v6.038c0 .266-.224.481-.5.481z"></path><path d="M71.519 67H65.48c-.266 0-.481-.224-.481-.5s.215-.5.481-.5h6.038c.266 0 .481.224.481.5s-.215.5-.481.5z"></path><path d="M66.521 69c-.137 0-.27-.053-.368-.15a.5206.5206 0 010-.737l2.991-2.988a.5172.5172 0 01.704.027c.192.192.203.498.027.704L66.89 68.85c-.097.097-.23.15-.368.15z"></path><path d="M69.487 69a.5185.5185 0 01-.366-.15l-2.971-2.97a.5154.5154 0 11.731-.727l2.967 2.967a.515.515 0 01.114.561c-.08.193-.267.32-.475.32zM87.5 164c-.276 0-.5-.216-.5-.481v-6.038c0-.265.224-.481.5-.481s.5.216.5.481v6.038c0 .265-.224.481-.5.481z"></path><path d="M91.533 162h-6.052c-.265 0-.481-.224-.481-.5s.216-.5.481-.5h6.038c.265 0 .481.224.481.5s-.216.5-.481.5h.014z"></path><path d="M86.515 163a.5161.5161 0 01-.365-.15c-.2-.2-.2-.525 0-.726l2.971-2.974a.5154.5154 0 01.879.366c0 .137-.055.269-.152.366l-2.967 2.984c-.1.09-.23.139-.366.134z"></path><path d="M89.484 163a.5087.5087 0 01-.36-.15l-2.973-2.967c-.201-.202-.201-.53 0-.731a.516.516 0 01.732 0l2.967 2.972c.2.201.2.526 0 .727a.5158.5158 0 01-.366.149zM61.5 220c-.276 0-.5-.215-.5-.48v-6.04c0-.265.224-.48.5-.48s.5.215.5.48v6.034c.001.129-.05.252-.145.343a.5074.5074 0 01-.355.143z"></path><path d="M64.519 217H58.48c-.266 0-.481-.224-.481-.5s.215-.5.481-.5h6.038c.266 0 .481.224.481.5s-.215.5-.481.5z"></path><path d="M60.511 218a.5125.5125 0 01-.36-.155.5124.5124 0 010-.726l2.971-2.97c.202-.199.527-.199.728 0 .2.202.2.527 0 .728l-2.972 2.968a.518.518 0 01-.367.155z"></path><path d="M63.48 218a.5092.5092 0 01-.363-.153l-2.938-2.947a.5112.5112 0 01.213-.886c.187-.045.383.019.509.165l2.948 2.946c.147.146.191.366.113.557a.5127.5127 0 01-.472.318h-.01zM135.5 64c-1.38 0-2.5-1.12-2.5-2.5s1.12-2.5 2.5-2.5 2.5 1.12 2.5 2.5-1.12 2.5-2.5 2.5zm0-3.957c-.592 0-1.126.356-1.352.904-.226.547-.1 1.176.32 1.594.419.418 1.049.542 1.595.314.547-.228.902-.763.9-1.355-.003-.806-.657-1.457-1.463-1.457zM75.5 85c-1.38 0-2.5-1.12-2.5-2.5s1.12-2.5 2.5-2.5 2.5 1.12 2.5 2.5-1.12 2.5-2.5 2.5zm0-3.963c-.808 0-1.463.655-1.463 1.463s.655 1.463 1.463 1.463 1.463-.655 1.463-1.463c.004-.39-.148-.767-.423-1.044-.275-.278-.65-.434-1.04-.434v.015zm66 59.963c-1.38 0-2.5-1.12-2.5-2.5s1.12-2.5 2.5-2.5 2.5 1.12 2.5 2.5-1.12 2.5-2.5 2.5zm0-3.957c-.592 0-1.126.356-1.352.904-.226.547-.1 1.176.32 1.594.419.418 1.049.542 1.595.314.547-.228.902-.763.9-1.355 0-.387-.155-.759-.43-1.032a1.4505 1.4505 0 00-1.033-.425zM45.505 139a2.5 2.5 0 01-2.313-1.54c-.389-.934-.176-2.01.538-2.726.715-.716 1.79-.93 2.726-.544A2.5005 2.5005 0 0148 136.5c0 1.379-1.116 2.497-2.495 2.5zm0-3.957a1.46 1.46 0 00-1.355.9c-.228.547-.103 1.177.316 1.596a1.4613 1.4613 0 002.496-1.039c0-.805-.652-1.457-1.457-1.457zM145.5 190c-1.38 0-2.5-1.12-2.5-2.5s1.12-2.5 2.5-2.5 2.5 1.12 2.5 2.5-1.12 2.5-2.5 2.5zm0-3.963c-.808 0-1.463.655-1.463 1.463s.655 1.463 1.463 1.463 1.463-.655 1.463-1.463-.655-1.463-1.463-1.463zM45.5 216c-1.011 0-1.923-.61-2.31-1.543a2.5005 2.5005 0 013.267-3.267A2.5006 2.5006 0 0148 213.5c-.003 1.38-1.12 2.497-2.5 2.5zm0-3.963c-.808 0-1.463.655-1.463 1.463s.655 1.463 1.463 1.463 1.463-.655 1.463-1.463c-.003-.807-.656-1.46-1.463-1.463zM123.505 224a2.5 2.5 0 01-2.313-1.54c-.389-.934-.176-2.01.538-2.726.715-.716 1.79-.93 2.726-.544A2.5005 2.5005 0 01126 221.5c0 1.379-1.116 2.497-2.495 2.5zm0-3.963a1.4625 1.4625 0 00-1.355.9c-.228.546-.104 1.176.314 1.595a1.4623 1.4623 0 002.499-1.032c0-.806-.652-1.46-1.458-1.463z"></path></g></symbol></defs>
<use xlink:href="#icon-ilustracoes-categorias-front-end"></use>
</svg>